<svg id="svg" version="1.1" xmlns="http://www.w3.org/2000/svg" xmlns:xlink="http://www.w3.org/1999/xlink" width="400" height="400" viewBox="0, 0, 400,400"><g id="svgg"><path id="path0" d="M0.000 200.000 L 0.000 400.000 200.000 400.000 L 400.000 400.000 400.000 200.000 L 400.000 0.000 200.000 0.000 L 0.000 0.000 0.000 200.000 M144.780 151.394 C 145.184 151.522,145.627 151.936,145.766 152.313 C 145.905 152.691,146.464 153.720,147.007 154.600 C 147.550 155.480,148.255 156.754,148.574 157.432 C 148.893 158.109,149.434 158.896,149.777 159.181 C 150.120 159.465,150.400 160.014,150.400 160.400 C 150.400 160.786,150.663 161.320,150.985 161.587 C 151.306 161.854,151.687 162.461,151.832 162.936 C 151.976 163.411,152.336 164.076,152.631 164.414 C 152.927 164.752,153.740 166.102,154.438 167.414 C 155.136 168.726,156.044 170.229,156.454 170.754 C 156.864 171.279,157.200 172.044,157.200 172.454 C 157.200 172.864,157.386 173.200,157.614 173.200 C 157.842 173.200,158.385 173.965,158.820 174.900 C 159.255 175.835,160.052 177.320,160.590 178.200 C 161.128 179.080,161.773 180.295,162.023 180.900 C 162.274 181.505,162.621 182.000,162.796 182.000 C 162.970 182.000,163.413 182.675,163.780 183.500 C 164.147 184.325,164.880 185.720,165.410 186.600 C 166.927 189.121,167.919 190.896,168.578 192.273 C 168.914 192.973,169.345 193.642,169.536 193.760 C 169.728 193.879,170.495 195.196,171.242 196.688 C 171.989 198.180,172.813 199.626,173.074 199.902 C 173.334 200.179,173.671 200.809,173.823 201.302 C 173.974 201.796,174.301 202.446,174.549 202.748 C 175.035 203.338,177.689 207.965,178.479 209.600 C 178.745 210.150,179.011 210.670,179.071 210.757 C 179.261 211.030,180.792 209.047,181.354 207.800 C 183.042 204.051,184.534 203.840,186.221 207.112 C 186.869 208.371,187.511 209.490,187.646 209.600 C 187.782 209.710,188.279 210.520,188.750 211.400 C 189.752 213.268,190.300 214.194,191.284 215.684 C 191.678 216.280,192.000 216.974,192.000 217.226 C 192.000 217.478,192.450 218.219,193.000 218.873 C 193.550 219.527,194.000 220.372,194.000 220.751 C 194.000 221.130,194.206 221.646,194.457 221.897 C 194.801 222.241,194.650 222.885,193.854 224.477 C 192.412 227.363,189.875 231.866,189.465 232.270 C 189.280 232.452,188.874 233.140,188.562 233.800 C 188.250 234.460,187.558 235.720,187.025 236.600 C 186.491 237.480,185.766 238.740,185.413 239.400 C 185.061 240.060,184.329 241.320,183.789 242.200 C 183.248 243.080,182.518 244.430,182.166 245.200 C 181.570 246.506,179.817 248.400,179.205 248.400 C 178.861 248.400,176.400 244.621,176.400 244.093 C 176.400 243.876,176.151 243.491,175.846 243.238 C 175.542 242.986,174.687 241.568,173.946 240.089 C 173.206 238.610,172.389 237.264,172.131 237.098 C 171.873 236.931,171.547 236.269,171.406 235.625 C 171.264 234.982,170.894 234.244,170.583 233.986 C 170.038 233.533,169.748 233.053,168.181 230.000 C 167.786 229.230,167.359 228.510,167.231 228.400 C 167.104 228.290,166.681 227.570,166.292 226.800 C 165.902 226.030,165.149 224.680,164.619 223.800 C 164.089 222.920,163.366 221.660,163.013 221.000 C 162.661 220.340,161.934 219.080,161.399 218.200 C 159.896 215.726,158.892 213.926,158.186 212.442 C 157.831 211.695,157.284 210.827,156.970 210.513 C 156.657 210.199,156.400 209.745,156.400 209.503 C 156.400 209.261,156.149 208.779,155.843 208.431 C 155.251 207.761,152.384 202.662,151.399 200.527 C 151.076 199.827,150.643 199.150,150.437 199.023 C 150.231 198.896,149.496 197.668,148.804 196.296 C 148.112 194.923,147.034 192.990,146.409 192.000 C 145.783 191.010,144.671 189.039,143.936 187.619 C 143.201 186.199,142.285 184.714,141.900 184.319 C 141.515 183.924,141.200 183.240,141.200 182.800 C 141.200 182.360,141.011 182.000,140.780 182.000 C 140.548 182.000,140.078 181.325,139.735 180.500 C 139.391 179.675,138.995 178.910,138.855 178.800 C 138.522 178.539,137.381 176.556,136.577 174.842 C 136.227 174.095,135.684 173.227,135.371 172.914 C 135.058 172.600,134.691 171.907,134.557 171.372 C 134.423 170.837,134.172 170.400,134.000 170.400 C 133.828 170.400,133.387 169.725,133.020 168.900 C 132.653 168.075,131.915 166.680,131.379 165.800 C 130.844 164.920,130.122 163.660,129.775 163.000 C 129.429 162.340,128.711 161.080,128.181 160.200 C 127.651 159.320,126.898 157.970,126.508 157.200 C 126.119 156.430,125.662 155.698,125.494 155.573 C 123.833 154.339,123.652 151.593,125.200 151.101 C 126.026 150.839,143.871 151.105,144.780 151.394 M183.934 152.294 C 184.448 152.903,185.135 153.940,185.461 154.600 C 185.788 155.260,186.491 156.520,187.025 157.400 C 187.558 158.280,188.274 159.540,188.615 160.200 C 188.957 160.860,190.111 162.840,191.179 164.600 C 192.247 166.360,193.724 168.970,194.461 170.400 C 195.197 171.830,196.011 173.136,196.269 173.302 C 196.527 173.469,196.856 174.144,197.001 174.802 C 197.145 175.461,197.421 176.000,197.613 176.000 C 197.805 176.000,198.331 176.765,198.782 177.700 C 199.233 178.635,200.045 180.120,200.585 181.000 C 201.126 181.880,201.773 183.095,202.023 183.700 C 202.274 184.305,202.613 184.800,202.778 184.800 C 202.944 184.800,203.380 185.475,203.748 186.300 C 204.116 187.125,204.862 188.520,205.406 189.400 C 205.949 190.280,206.681 191.540,207.032 192.200 C 208.579 195.111,209.164 196.098,209.716 196.728 C 210.040 197.097,210.441 197.850,210.607 198.400 C 210.772 198.950,211.033 199.490,211.185 199.600 C 211.446 199.788,211.880 200.575,213.628 204.031 C 214.026 204.818,214.633 205.695,214.976 205.980 C 215.319 206.265,215.600 206.836,215.600 207.249 C 215.600 207.662,215.758 208.000,215.951 208.000 C 216.145 208.000,216.544 208.585,216.839 209.300 C 218.241 212.698,219.232 213.656,219.944 212.300 C 220.203 211.805,220.856 210.680,221.394 209.800 C 221.932 208.920,222.661 207.660,223.013 207.000 C 223.366 206.340,224.091 205.080,224.625 204.200 C 227.371 199.668,227.371 199.132,224.625 194.600 C 224.091 193.720,223.371 192.460,223.025 191.800 C 222.678 191.140,221.952 189.880,221.411 189.000 C 220.871 188.120,220.152 186.860,219.814 186.200 C 219.477 185.540,218.749 184.280,218.198 183.400 C 217.646 182.520,216.907 181.170,216.554 180.400 C 216.202 179.630,215.677 178.864,215.388 178.698 C 215.099 178.531,214.744 177.856,214.599 177.198 C 214.455 176.539,214.185 176.000,213.999 176.000 C 213.814 176.000,213.454 175.370,213.200 174.600 C 212.946 173.830,212.594 173.200,212.418 173.200 C 212.241 173.200,211.860 172.615,211.571 171.900 C 211.282 171.185,210.932 170.510,210.794 170.400 C 210.656 170.290,209.780 168.809,208.849 167.110 C 207.917 165.410,206.985 163.914,206.777 163.786 C 206.570 163.658,206.400 163.231,206.400 162.838 C 206.400 162.445,206.040 161.798,205.600 161.400 C 205.160 161.002,204.800 160.458,204.800 160.192 C 204.800 159.926,204.451 159.264,204.025 158.722 C 203.598 158.180,203.129 157.256,202.981 156.668 C 202.834 156.081,202.572 155.600,202.398 155.600 C 201.637 155.600,200.394 152.234,200.950 151.678 C 201.759 150.870,275.052 150.880,275.860 151.689 C 276.442 152.271,276.077 153.200,273.775 157.000 C 273.242 157.880,272.522 159.140,272.175 159.800 C 271.829 160.460,271.114 161.720,270.587 162.600 C 268.774 165.630,267.985 167.009,266.352 170.000 C 265.452 171.650,264.464 173.284,264.157 173.631 C 263.851 173.979,263.600 174.553,263.600 174.908 C 263.600 175.263,263.430 175.658,263.223 175.786 C 263.015 175.914,262.120 177.333,261.233 178.940 C 260.346 180.546,259.144 182.375,258.561 183.005 L 257.501 184.148 256.356 182.774 C 255.726 182.018,254.992 180.815,254.725 180.100 C 254.458 179.385,254.115 178.800,253.963 178.800 C 253.811 178.800,253.399 178.080,253.047 177.200 C 252.695 176.320,252.239 175.600,252.035 175.600 C 251.831 175.600,251.549 175.079,251.409 174.441 C 251.269 173.804,250.805 172.966,250.377 172.579 C 249.950 172.193,249.600 171.658,249.600 171.392 C 249.600 171.126,249.227 170.434,248.771 169.854 L 247.942 168.800 240.238 168.800 C 231.549 168.800,231.722 168.755,233.034 170.688 C 233.565 171.471,234.000 172.357,234.000 172.656 C 234.000 172.955,234.158 173.200,234.351 173.200 C 234.545 173.200,234.939 173.785,235.228 174.500 C 235.517 175.215,235.969 175.933,236.232 176.095 C 236.495 176.257,236.829 176.860,236.973 177.435 C 237.117 178.010,237.587 179.002,238.018 179.640 C 238.448 180.278,239.160 181.333,239.600 181.984 C 240.040 182.635,240.400 183.342,240.400 183.555 C 240.400 183.768,240.625 184.181,240.900 184.471 C 241.175 184.762,241.717 185.630,242.106 186.400 C 242.875 187.926,244.176 190.207,245.530 192.400 C 246.005 193.170,246.613 194.250,246.881 194.800 C 247.149 195.350,247.690 196.229,248.084 196.754 C 248.989 197.959,249.045 200.899,248.177 201.619 C 247.834 201.904,247.295 202.691,246.979 203.368 C 246.664 204.046,245.953 205.320,245.400 206.200 C 244.848 207.080,244.031 208.430,243.586 209.200 C 243.142 209.970,242.422 211.140,241.988 211.800 C 241.554 212.460,240.922 213.540,240.584 214.200 C 240.246 214.860,239.444 216.210,238.800 217.200 C 238.156 218.190,237.348 219.540,237.004 220.200 C 236.070 221.991,235.430 223.041,234.831 223.762 C 234.321 224.377,233.657 225.495,232.194 228.200 C 231.837 228.860,231.114 230.120,230.587 231.000 C 230.061 231.880,229.259 233.275,228.807 234.100 C 228.354 234.925,227.827 235.600,227.635 235.600 C 227.444 235.600,227.173 236.055,227.033 236.611 C 226.894 237.166,226.064 238.651,225.190 239.911 C 224.316 241.170,223.601 242.403,223.601 242.651 C 223.600 242.899,223.320 243.335,222.977 243.619 C 222.634 243.904,222.109 244.691,221.811 245.368 C 221.512 246.046,220.805 247.140,220.239 247.800 L 219.210 249.000 217.995 247.600 C 217.327 246.830,216.514 245.660,216.188 245.000 C 215.861 244.340,215.153 243.080,214.613 242.200 C 214.073 241.320,213.427 240.105,213.177 239.500 C 212.926 238.895,212.555 238.400,212.351 238.400 C 212.147 238.400,211.794 237.911,211.567 237.313 C 211.340 236.715,210.939 235.974,210.677 235.666 C 210.415 235.357,209.529 233.911,208.709 232.452 C 207.239 229.837,206.483 228.547,204.578 225.400 C 204.045 224.520,203.410 223.305,203.166 222.700 C 202.921 222.095,202.555 221.600,202.352 221.600 C 202.149 221.600,201.772 221.105,201.514 220.500 C 201.256 219.895,200.831 219.130,200.568 218.800 C 200.306 218.470,199.523 217.126,198.830 215.814 C 198.136 214.502,197.327 213.152,197.031 212.814 C 196.736 212.476,196.371 211.795,196.220 211.300 C 196.070 210.805,195.798 210.400,195.616 210.400 C 195.435 210.400,194.987 209.725,194.620 208.900 C 193.578 206.556,192.741 205.103,191.939 204.242 C 191.532 203.806,191.200 203.235,191.200 202.974 C 191.200 202.712,190.974 202.311,190.699 202.082 C 190.423 201.853,189.592 200.486,188.853 199.044 C 188.113 197.601,187.258 196.214,186.954 195.962 C 186.649 195.709,186.400 195.192,186.400 194.813 C 186.400 194.434,186.040 193.798,185.600 193.400 C 185.160 193.002,184.800 192.458,184.800 192.192 C 184.800 191.926,184.465 191.279,184.055 190.754 C 183.645 190.229,183.180 189.384,183.021 188.876 C 182.773 188.087,181.838 186.513,179.286 182.590 C 179.004 182.155,178.482 181.125,178.126 180.300 C 177.770 179.475,177.340 178.800,177.170 178.800 C 177.001 178.800,176.659 178.186,176.412 177.435 C 176.164 176.685,175.700 175.970,175.381 175.848 C 175.061 175.725,174.800 175.287,174.800 174.874 C 174.800 174.461,174.435 173.702,173.989 173.187 C 173.543 172.673,173.074 171.836,172.946 171.326 C 172.818 170.817,172.572 170.400,172.400 170.400 C 172.228 170.400,171.787 169.725,171.420 168.900 C 171.053 168.075,170.315 166.680,169.780 165.800 C 169.245 164.920,168.580 163.750,168.302 163.200 C 167.770 162.146,166.745 160.475,165.599 158.792 C 165.221 158.238,164.773 157.338,164.602 156.792 C 164.432 156.247,164.173 155.710,164.028 155.600 C 163.393 155.119,162.014 152.302,162.236 151.941 C 162.748 151.113,164.214 151.003,173.475 151.094 L 183.000 151.189 183.934 152.294 " stroke="none" fill="#131313" fill-rule="evenodd"></path><path id="path1" d="M125.467 152.266 C 125.196 152.537,126.732 155.429,128.064 157.154 C 128.469 157.679,128.800 158.422,128.800 158.805 C 128.800 159.188,129.080 159.735,129.423 160.019 C 129.766 160.304,130.313 161.091,130.639 161.768 C 131.304 163.150,132.355 165.024,133.799 167.400 C 134.334 168.280,135.055 169.540,135.402 170.200 C 135.749 170.860,136.469 172.120,137.002 173.000 C 137.535 173.880,138.248 175.140,138.586 175.800 C 138.923 176.460,139.653 177.720,140.208 178.600 C 140.762 179.480,141.510 180.875,141.869 181.700 C 142.228 182.525,142.652 183.200,142.812 183.200 C 142.972 183.200,143.334 183.785,143.617 184.500 C 143.900 185.215,144.346 186.070,144.608 186.400 C 144.870 186.730,145.605 187.990,146.242 189.200 C 146.879 190.410,147.514 191.490,147.653 191.600 C 147.792 191.710,148.242 192.460,148.653 193.267 C 150.133 196.175,152.853 200.786,153.223 201.014 C 153.430 201.142,153.600 201.575,153.600 201.975 C 153.600 202.375,153.853 202.912,154.163 203.169 C 154.473 203.426,155.022 204.214,155.384 204.918 C 155.747 205.623,156.471 206.920,156.994 207.800 C 157.516 208.680,158.286 210.030,158.705 210.800 C 159.416 212.109,159.876 212.914,162.246 217.000 C 162.757 217.880,163.458 219.140,163.804 219.800 C 164.149 220.460,164.869 221.720,165.402 222.600 C 165.935 223.480,166.661 224.740,167.013 225.400 C 167.366 226.060,168.089 227.320,168.619 228.200 C 169.149 229.080,169.902 230.430,170.292 231.200 C 170.681 231.970,171.107 232.690,171.238 232.800 C 171.474 232.998,172.084 234.086,173.480 236.800 C 173.876 237.570,174.413 238.426,174.674 238.702 C 174.934 238.979,175.267 239.582,175.414 240.044 C 175.661 240.821,177.118 243.232,177.945 244.231 C 178.142 244.468,178.426 245.053,178.578 245.531 C 179.150 247.334,180.202 246.256,182.995 241.000 C 183.346 240.340,184.068 239.080,184.599 238.200 C 185.131 237.320,185.935 235.880,186.385 235.000 C 186.836 234.120,187.558 232.860,187.991 232.200 C 188.423 231.540,189.140 230.337,189.583 229.527 C 190.026 228.717,190.557 227.950,190.764 227.823 C 190.970 227.695,191.256 227.054,191.400 226.398 C 191.545 225.742,191.931 225.054,192.260 224.870 C 193.395 224.235,193.378 221.557,192.230 220.022 C 191.664 219.265,191.200 218.446,191.200 218.202 C 191.200 217.959,190.976 217.536,190.703 217.263 C 190.173 216.733,187.578 212.223,186.620 210.168 C 186.305 209.491,185.783 208.718,185.462 208.452 C 185.141 208.185,184.761 207.499,184.617 206.926 L 184.356 205.885 183.694 206.842 C 183.330 207.369,182.800 208.038,182.516 208.329 C 182.232 208.619,182.000 209.086,182.000 209.366 C 182.000 210.220,180.224 212.001,179.387 211.985 C 178.602 211.971,176.772 209.506,176.233 207.737 C 176.088 207.262,175.723 206.779,175.422 206.664 C 175.122 206.549,174.757 205.917,174.613 205.260 C 174.469 204.604,174.109 203.974,173.813 203.860 C 173.517 203.747,173.154 203.102,173.006 202.427 C 172.858 201.752,172.586 201.200,172.401 201.200 C 172.217 201.200,171.736 200.575,171.333 199.812 C 168.185 193.849,167.458 192.527,167.036 192.000 C 166.771 191.670,166.336 190.950,166.069 190.400 C 165.803 189.850,165.150 188.680,164.620 187.800 C 164.089 186.920,163.371 185.660,163.025 185.000 C 162.678 184.340,161.952 183.080,161.411 182.200 C 160.871 181.320,160.139 180.060,159.787 179.400 C 159.434 178.740,158.710 177.480,158.178 176.600 C 157.647 175.720,156.841 174.280,156.389 173.400 C 155.936 172.520,155.128 171.080,154.592 170.200 C 154.057 169.320,153.423 168.154,153.184 167.608 C 152.945 167.063,152.602 166.523,152.422 166.408 C 152.242 166.294,151.758 165.532,151.347 164.716 C 150.353 162.740,146.610 156.277,145.085 153.900 L 143.865 152.000 134.799 152.000 C 129.813 152.000,125.614 152.120,125.467 152.266 M163.848 152.322 C 163.639 152.661,163.796 152.981,165.900 156.514 C 166.615 157.715,167.200 158.900,167.200 159.149 C 167.200 159.397,167.344 159.600,167.520 159.600 C 167.696 159.600,168.243 160.365,168.735 161.300 C 171.238 166.061,172.408 168.151,172.902 168.745 C 173.201 169.105,173.669 169.850,173.942 170.400 C 174.215 170.950,174.873 172.120,175.403 173.000 C 175.933 173.880,176.639 175.140,176.970 175.800 C 177.301 176.460,178.028 177.720,178.586 178.600 C 179.143 179.480,179.968 180.920,180.418 181.800 C 181.369 183.658,182.432 185.547,183.794 187.800 C 184.326 188.680,184.991 189.850,185.273 190.400 C 185.554 190.950,185.915 191.496,186.076 191.614 C 186.237 191.732,186.653 192.452,186.999 193.214 C 187.346 193.976,188.156 195.410,188.800 196.400 C 189.444 197.390,190.228 198.763,190.544 199.451 C 190.860 200.139,191.317 200.825,191.559 200.975 C 191.802 201.125,192.000 201.602,192.000 202.036 C 192.000 202.470,192.254 202.922,192.563 203.041 C 192.873 203.160,193.362 203.830,193.649 204.529 C 193.937 205.228,194.717 206.610,195.384 207.600 C 196.051 208.590,196.867 209.888,197.198 210.484 C 198.188 212.265,201.184 217.312,202.015 218.600 C 202.442 219.260,203.108 220.430,203.495 221.200 C 203.883 221.970,204.310 222.690,204.444 222.800 C 204.578 222.910,204.991 223.540,205.360 224.200 C 205.729 224.860,206.468 226.120,207.002 227.000 C 207.535 227.880,208.245 229.173,208.580 229.873 C 208.914 230.573,209.373 231.260,209.600 231.400 C 209.827 231.540,210.284 232.227,210.617 232.927 C 211.461 234.704,212.167 235.876,212.888 236.697 C 213.228 237.084,213.639 237.836,213.802 238.369 C 213.965 238.902,214.259 239.532,214.456 239.769 C 215.410 240.915,217.186 243.856,217.193 244.300 C 217.197 244.575,217.350 244.800,217.532 244.800 C 217.715 244.800,218.106 245.250,218.400 245.800 C 219.135 247.173,219.243 247.114,220.805 244.500 C 221.561 243.235,222.296 242.110,222.438 242.000 C 222.579 241.890,223.261 240.736,223.952 239.436 C 224.643 238.136,225.410 236.829,225.657 236.531 C 225.904 236.234,226.397 235.464,226.753 234.820 C 227.109 234.177,228.120 232.451,229.000 230.986 C 231.650 226.573,232.314 225.455,233.028 224.200 C 233.404 223.540,233.822 222.910,233.956 222.800 C 234.273 222.540,235.424 220.542,236.187 218.927 C 236.517 218.227,236.973 217.540,237.200 217.400 C 237.427 217.260,237.881 216.573,238.209 215.873 C 238.537 215.173,239.245 213.880,239.783 213.000 C 240.320 212.120,241.072 210.815,241.454 210.100 C 241.836 209.385,242.277 208.800,242.435 208.800 C 242.593 208.800,242.927 208.305,243.177 207.700 C 243.850 206.073,244.834 204.283,245.442 203.581 C 246.984 201.798,248.040 199.108,247.456 198.449 C 247.139 198.092,246.585 197.170,246.226 196.400 C 245.866 195.630,245.135 194.280,244.602 193.400 C 244.069 192.520,243.346 191.260,242.995 190.600 C 241.547 187.876,240.841 186.708,240.237 186.041 C 239.887 185.654,239.600 185.119,239.600 184.852 C 239.600 184.586,239.278 183.880,238.884 183.284 C 237.773 181.602,237.267 180.737,236.318 178.900 C 235.836 177.965,235.311 177.200,235.152 177.200 C 234.993 177.200,234.745 176.660,234.600 176.000 C 234.455 175.340,234.193 174.800,234.017 174.800 C 233.841 174.800,233.459 174.215,233.167 173.500 C 232.876 172.785,232.427 172.020,232.170 171.800 C 231.394 171.136,230.849 169.012,231.265 168.270 C 231.596 167.678,232.576 167.601,239.720 167.606 C 249.296 167.613,249.229 167.591,251.172 171.400 C 251.957 172.940,252.728 174.296,252.884 174.414 C 253.040 174.531,253.739 175.701,254.438 177.014 C 255.136 178.326,256.044 179.829,256.454 180.354 C 256.864 180.879,257.206 181.599,257.213 181.954 C 257.234 183.065,259.202 180.185,261.191 176.132 C 261.641 175.214,262.142 174.404,262.305 174.332 C 262.467 174.259,263.211 172.980,263.958 171.488 C 264.705 169.996,265.472 168.679,265.664 168.560 C 265.855 168.442,266.278 167.773,266.603 167.073 C 267.352 165.461,270.061 160.672,270.633 159.948 C 270.871 159.646,271.298 158.815,271.581 158.100 C 271.865 157.385,272.238 156.800,272.409 156.800 C 272.581 156.800,272.925 156.305,273.173 155.700 C 273.422 155.095,273.878 154.160,274.188 153.622 C 274.498 153.085,274.662 152.500,274.552 152.322 C 274.237 151.813,202.500 151.915,202.184 152.425 C 202.040 152.659,202.207 153.166,202.556 153.551 C 202.905 153.937,203.390 154.825,203.634 155.526 C 203.878 156.227,204.221 156.800,204.396 156.800 C 204.570 156.800,205.013 157.475,205.380 158.300 C 205.747 159.125,206.480 160.520,207.009 161.400 C 208.700 164.215,209.583 165.737,211.109 168.470 C 211.929 169.939,212.751 171.289,212.935 171.470 C 213.120 171.652,213.521 172.340,213.827 173.000 C 214.133 173.660,214.558 174.470,214.770 174.800 C 214.983 175.130,215.926 176.750,216.867 178.400 C 217.807 180.050,218.887 181.940,219.267 182.600 C 219.647 183.260,220.244 184.340,220.595 185.000 C 220.946 185.660,221.663 186.920,222.189 187.800 C 222.715 188.680,223.421 189.940,223.759 190.600 C 224.096 191.260,224.830 192.520,225.389 193.400 C 225.948 194.280,226.671 195.573,226.996 196.273 C 227.322 196.973,227.771 197.658,227.994 197.796 C 228.540 198.134,228.513 200.683,227.959 201.025 C 227.717 201.175,227.259 201.861,226.943 202.549 C 226.626 203.237,225.934 204.520,225.404 205.400 C 224.875 206.280,224.240 207.450,223.994 208.000 C 223.748 208.550,223.228 209.360,222.838 209.800 C 222.448 210.240,221.906 211.167,221.633 211.860 C 221.359 212.554,220.684 213.544,220.132 214.060 L 219.129 215.000 218.131 213.800 C 217.581 213.140,216.880 212.027,216.572 211.327 C 216.264 210.627,215.855 209.958,215.664 209.840 C 215.472 209.721,214.705 208.404,213.958 206.912 C 213.211 205.420,212.461 204.139,212.290 204.063 C 212.120 203.988,211.721 203.358,211.404 202.663 C 211.087 201.969,210.384 200.680,209.841 199.800 C 209.299 198.920,208.463 197.480,207.985 196.600 C 206.307 193.511,205.559 192.186,204.599 190.600 C 204.067 189.720,203.427 188.505,203.177 187.900 C 202.926 187.295,202.581 186.800,202.409 186.800 C 202.238 186.800,201.857 186.215,201.563 185.500 C 201.269 184.785,200.631 183.610,200.145 182.889 C 199.658 182.167,198.868 180.817,198.389 179.889 C 197.910 178.960,197.090 177.480,196.567 176.600 C 196.045 175.720,195.298 174.370,194.908 173.600 C 194.519 172.830,194.072 172.104,193.916 171.986 C 193.759 171.868,193.347 171.148,193.001 170.386 C 192.654 169.624,191.849 168.190,191.212 167.200 C 190.576 166.210,189.487 164.275,188.794 162.900 C 188.101 161.525,187.382 160.400,187.198 160.400 C 187.013 160.400,186.642 159.725,186.373 158.900 C 186.104 158.075,185.722 157.294,185.523 157.165 C 185.114 156.898,183.874 154.744,183.184 153.100 L 182.722 152.000 173.384 152.000 C 168.249 152.000,163.958 152.145,163.848 152.322 " stroke="none" fill="#f6f6f6" fill-rule="evenodd"></path><path id="path2" d="M236.321 168.299 C 238.588 168.370,242.188 168.370,244.321 168.298 C 246.455 168.226,244.600 168.168,240.200 168.168 C 235.800 168.168,234.055 168.227,236.321 168.299 " stroke="none" fill="#818484" fill-rule="evenodd"></path><path id="path3" d="M125.200 151.101 C 123.652 151.593,123.833 154.339,125.494 155.573 C 125.662 155.698,126.119 156.430,126.508 157.200 C 126.898 157.970,127.651 159.320,128.181 160.200 C 128.711 161.080,129.429 162.340,129.775 163.000 C 130.122 163.660,130.844 164.920,131.379 165.800 C 131.915 166.680,132.653 168.075,133.020 168.900 C 133.387 169.725,133.828 170.400,134.000 170.400 C 134.172 170.400,134.423 170.837,134.557 171.372 C 134.691 171.907,135.058 172.600,135.371 172.914 C 135.684 173.227,136.227 174.095,136.577 174.842 C 137.381 176.556,138.522 178.539,138.855 178.800 C 138.995 178.910,139.391 179.675,139.735 180.500 C 140.078 181.325,140.548 182.000,140.780 182.000 C 141.011 182.000,141.200 182.360,141.200 182.800 C 141.200 183.240,141.515 183.924,141.900 184.319 C 142.285 184.714,143.201 186.199,143.936 187.619 C 144.671 189.039,145.783 191.010,146.409 192.000 C 147.034 192.990,148.112 194.923,148.804 196.296 C 149.496 197.668,150.231 198.896,150.437 199.023 C 150.643 199.150,151.076 199.827,151.399 200.527 C 152.384 202.662,155.251 207.761,155.843 208.431 C 156.149 208.779,156.400 209.261,156.400 209.503 C 156.400 209.745,156.657 210.199,156.970 210.513 C 157.284 210.827,157.831 211.695,158.186 212.442 C 158.892 213.926,159.896 215.726,161.399 218.200 C 161.934 219.080,162.661 220.340,163.013 221.000 C 163.366 221.660,164.089 222.920,164.619 223.800 C 165.149 224.680,165.902 226.030,166.292 226.800 C 166.681 227.570,167.104 228.290,167.231 228.400 C 167.359 228.510,167.786 229.230,168.181 230.000 C 169.748 233.053,170.038 233.533,170.583 233.986 C 170.894 234.244,171.264 234.982,171.406 235.625 C 171.547 236.269,171.873 236.931,172.131 237.098 C 172.389 237.264,173.206 238.610,173.946 240.089 C 174.687 241.568,175.542 242.986,175.846 243.238 C 176.151 243.491,176.400 243.876,176.400 244.093 C 176.400 244.621,178.861 248.400,179.205 248.400 C 179.817 248.400,181.570 246.506,182.166 245.200 C 182.518 244.430,183.248 243.080,183.789 242.200 C 184.329 241.320,185.061 240.060,185.413 239.400 C 185.766 238.740,186.491 237.480,187.025 236.600 C 187.558 235.720,188.250 234.460,188.562 233.800 C 188.874 233.140,189.280 232.452,189.465 232.270 C 189.875 231.866,192.412 227.363,193.854 224.477 C 194.650 222.885,194.801 222.241,194.457 221.897 C 194.206 221.646,194.000 221.130,194.000 220.751 C 194.000 220.372,193.550 219.527,193.000 218.873 C 192.450 218.219,192.000 217.478,192.000 217.226 C 192.000 216.974,191.678 216.280,191.284 215.684 C 190.300 214.194,189.752 213.268,188.750 211.400 C 188.279 210.520,187.782 209.710,187.646 209.600 C 187.511 209.490,186.869 208.371,186.221 207.112 C 184.534 203.840,183.042 204.051,181.354 207.800 C 180.792 209.047,179.261 211.030,179.071 210.757 C 179.011 210.670,178.745 210.150,178.479 209.600 C 177.689 207.965,175.035 203.338,174.549 202.748 C 174.301 202.446,173.974 201.796,173.823 201.302 C 173.671 200.809,173.334 200.179,173.074 199.902 C 172.813 199.626,171.989 198.180,171.242 196.688 C 170.495 195.196,169.728 193.879,169.536 193.760 C 169.345 193.642,168.914 192.973,168.578 192.273 C 167.919 190.896,166.927 189.121,165.410 186.600 C 164.880 185.720,164.147 184.325,163.780 183.500 C 163.413 182.675,162.970 182.000,162.796 182.000 C 162.621 182.000,162.274 181.505,162.023 180.900 C 161.773 180.295,161.128 179.080,160.590 178.200 C 160.052 177.320,159.255 175.835,158.820 174.900 C 158.385 173.965,157.842 173.200,157.614 173.200 C 157.386 173.200,157.200 172.864,157.200 172.454 C 157.200 172.044,156.864 171.279,156.454 170.754 C 156.044 170.229,155.136 168.726,154.438 167.414 C 153.740 166.102,152.927 164.752,152.631 164.414 C 152.336 164.076,151.976 163.411,151.832 162.936 C 151.687 162.461,151.306 161.854,150.985 161.587 C 150.663 161.320,150.400 160.786,150.400 160.400 C 150.400 160.014,150.120 159.465,149.777 159.181 C 149.434 158.896,148.893 158.109,148.574 157.432 C 148.255 156.754,147.550 155.480,147.007 154.600 C 146.464 153.720,145.905 152.691,145.766 152.313 C 145.627 151.936,145.184 151.522,144.780 151.394 C 143.871 151.105,126.026 150.839,125.200 151.101 M163.216 151.272 C 161.903 151.758,162.391 154.360,164.028 155.600 C 164.173 155.710,164.432 156.247,164.602 156.792 C 164.773 157.338,165.221 158.238,165.599 158.792 C 166.745 160.475,167.770 162.146,168.302 163.200 C 168.580 163.750,169.245 164.920,169.780 165.800 C 170.315 166.680,171.053 168.075,171.420 168.900 C 171.787 169.725,172.228 170.400,172.400 170.400 C 172.572 170.400,172.818 170.817,172.946 171.326 C 173.074 171.836,173.543 172.673,173.989 173.187 C 174.435 173.702,174.800 174.461,174.800 174.874 C 174.800 175.287,175.061 175.725,175.381 175.848 C 175.700 175.970,176.164 176.685,176.412 177.435 C 176.659 178.186,177.001 178.800,177.170 178.800 C 177.340 178.800,177.770 179.475,178.126 180.300 C 178.482 181.125,179.004 182.155,179.286 182.590 C 181.838 186.513,182.773 188.087,183.021 188.876 C 183.180 189.384,183.645 190.229,184.055 190.754 C 184.465 191.279,184.800 191.926,184.800 192.192 C 184.800 192.458,185.160 193.002,185.600 193.400 C 186.040 193.798,186.400 194.434,186.400 194.813 C 186.400 195.192,186.649 195.709,186.954 195.962 C 187.258 196.214,188.113 197.601,188.853 199.044 C 189.592 200.486,190.423 201.853,190.699 202.082 C 190.974 202.311,191.200 202.712,191.200 202.974 C 191.200 203.235,191.532 203.806,191.939 204.242 C 192.741 205.103,193.578 206.556,194.620 208.900 C 194.987 209.725,195.435 210.400,195.616 210.400 C 195.798 210.400,196.070 210.805,196.220 211.300 C 196.371 211.795,196.736 212.476,197.031 212.814 C 197.327 213.152,198.136 214.502,198.830 215.814 C 199.523 217.126,200.306 218.470,200.568 218.800 C 200.831 219.130,201.256 219.895,201.514 220.500 C 201.772 221.105,202.149 221.600,202.352 221.600 C 202.555 221.600,202.921 222.095,203.166 222.700 C 203.410 223.305,204.045 224.520,204.578 225.400 C 206.483 228.547,207.239 229.837,208.709 232.452 C 209.529 233.911,210.415 235.357,210.677 235.666 C 210.939 235.974,211.340 236.715,211.567 237.313 C 211.794 237.911,212.147 238.400,212.351 238.400 C 212.555 238.400,212.926 238.895,213.177 239.500 C 213.427 240.105,214.073 241.320,214.613 242.200 C 215.153 243.080,215.861 244.340,216.188 245.000 C 216.514 245.660,217.327 246.830,217.995 247.600 L 219.210 249.000 220.239 247.800 C 220.805 247.140,221.512 246.046,221.811 245.368 C 222.109 244.691,222.634 243.904,222.977 243.619 C 223.320 243.335,223.600 242.899,223.601 242.651 C 223.601 242.403,224.316 241.170,225.190 239.911 C 226.064 238.651,226.894 237.166,227.033 236.611 C 227.173 236.055,227.444 235.600,227.635 235.600 C 227.827 235.600,228.354 234.925,228.807 234.100 C 229.259 233.275,230.061 231.880,230.587 231.000 C 231.114 230.120,231.837 228.860,232.194 228.200 C 233.657 225.495,234.321 224.377,234.831 223.762 C 235.430 223.041,236.070 221.991,237.004 220.200 C 237.348 219.540,238.156 218.190,238.800 217.200 C 239.444 216.210,240.246 214.860,240.584 214.200 C 240.922 213.540,241.554 212.460,241.988 211.800 C 242.422 211.140,243.142 209.970,243.586 209.200 C 244.031 208.430,244.848 207.080,245.400 206.200 C 245.953 205.320,246.664 204.046,246.979 203.368 C 247.295 202.691,247.834 201.904,248.177 201.619 C 249.045 200.899,248.989 197.959,248.084 196.754 C 247.690 196.229,247.149 195.350,246.881 194.800 C 246.613 194.250,246.005 193.170,245.530 192.400 C 244.176 190.207,242.875 187.926,242.106 186.400 C 241.717 185.630,241.175 184.762,240.900 184.471 C 240.625 184.181,240.400 183.768,240.400 183.555 C 240.400 183.342,240.040 182.635,239.600 181.984 C 239.160 181.333,238.448 180.278,238.018 179.640 C 237.587 179.002,237.117 178.010,236.973 177.435 C 236.829 176.860,236.495 176.257,236.232 176.095 C 235.969 175.933,235.517 175.215,235.228 174.500 C 234.939 173.785,234.545 173.200,234.351 173.200 C 234.158 173.200,234.000 172.955,234.000 172.656 C 234.000 172.357,233.565 171.471,233.034 170.688 C 231.722 168.755,231.549 168.800,240.238 168.800 L 247.942 168.800 248.771 169.854 C 249.227 170.434,249.600 171.126,249.600 171.392 C 249.600 171.658,249.950 172.193,250.377 172.579 C 250.805 172.966,251.269 173.804,251.409 174.441 C 251.549 175.079,251.831 175.600,252.035 175.600 C 252.239 175.600,252.695 176.320,253.047 177.200 C 253.399 178.080,253.811 178.800,253.963 178.800 C 254.115 178.800,254.458 179.385,254.725 180.100 C 254.992 180.815,255.726 182.018,256.356 182.774 L 257.501 184.148 258.561 183.005 C 259.144 182.375,260.346 180.546,261.233 178.940 C 262.120 177.333,263.015 175.914,263.223 175.786 C 263.430 175.658,263.600 175.263,263.600 174.908 C 263.600 174.553,263.851 173.979,264.157 173.631 C 264.464 173.284,265.452 171.650,266.352 170.000 C 267.985 167.009,268.774 165.630,270.587 162.600 C 271.114 161.720,271.829 160.460,272.175 159.800 C 272.522 159.140,273.242 157.880,273.775 157.000 C 276.077 153.200,276.442 152.271,275.860 151.689 C 275.052 150.880,201.759 150.870,200.950 151.678 C 200.394 152.234,201.637 155.600,202.398 155.600 C 202.572 155.600,202.834 156.081,202.981 156.668 C 203.129 157.256,203.598 158.180,204.025 158.722 C 204.451 159.264,204.800 159.926,204.800 160.192 C 204.800 160.458,205.160 161.002,205.600 161.400 C 206.040 161.798,206.400 162.445,206.400 162.838 C 206.400 163.231,206.570 163.658,206.777 163.786 C 206.985 163.914,207.917 165.410,208.849 167.110 C 209.780 168.809,210.656 170.290,210.794 170.400 C 210.932 170.510,211.282 171.185,211.571 171.900 C 211.860 172.615,212.241 173.200,212.418 173.200 C 212.594 173.200,212.946 173.830,213.200 174.600 C 213.454 175.370,213.814 176.000,213.999 176.000 C 214.185 176.000,214.455 176.539,214.599 177.198 C 214.744 177.856,215.099 178.531,215.388 178.698 C 215.677 178.864,216.202 179.630,216.554 180.400 C 216.907 181.170,217.646 182.520,218.198 183.400 C 218.749 184.280,219.477 185.540,219.814 186.200 C 220.152 186.860,220.871 188.120,221.411 189.000 C 221.952 189.880,222.678 191.140,223.025 191.800 C 223.371 192.460,224.091 193.720,224.625 194.600 C 227.371 199.132,227.371 199.668,224.625 204.200 C 224.091 205.080,223.366 206.340,223.013 207.000 C 222.661 207.660,221.932 208.920,221.394 209.800 C 220.856 210.680,220.203 211.805,219.944 212.300 C 219.232 213.656,218.241 212.698,216.839 209.300 C 216.544 208.585,216.145 208.000,215.951 208.000 C 215.758 208.000,215.600 207.662,215.600 207.249 C 215.600 206.836,215.319 206.265,214.976 205.980 C 214.633 205.695,214.026 204.818,213.628 204.031 C 211.880 200.575,211.446 199.788,211.185 199.600 C 211.033 199.490,210.772 198.950,210.607 198.400 C 210.441 197.850,210.040 197.097,209.716 196.728 C 209.164 196.098,208.579 195.111,207.032 192.200 C 206.681 191.540,205.949 190.280,205.406 189.400 C 204.862 188.520,204.116 187.125,203.748 186.300 C 203.380 185.475,202.944 184.800,202.778 184.800 C 202.613 184.800,202.274 184.305,202.023 183.700 C 201.773 183.095,201.126 181.880,200.585 181.000 C 200.045 180.120,199.233 178.635,198.782 177.700 C 198.331 176.765,197.805 176.000,197.613 176.000 C 197.421 176.000,197.145 175.461,197.001 174.802 C 196.856 174.144,196.527 173.469,196.269 173.302 C 196.011 173.136,195.197 171.830,194.461 170.400 C 193.724 168.970,192.247 166.360,191.179 164.600 C 190.111 162.840,188.957 160.860,188.615 160.200 C 188.274 159.540,187.558 158.280,187.025 157.400 C 186.491 156.520,185.788 155.260,185.461 154.600 C 185.135 153.940,184.448 152.903,183.934 152.294 L 183.000 151.189 173.475 151.094 C 168.237 151.043,163.620 151.122,163.216 151.272 M275.115 152.104 C 275.623 152.723,275.665 152.641,268.400 165.200 C 265.210 170.715,262.354 175.716,262.053 176.314 C 260.920 178.565,257.930 183.200,257.611 183.200 C 257.164 183.200,256.125 181.513,251.044 172.546 C 248.494 168.044,249.428 168.400,240.162 168.400 C 231.622 168.400,231.184 168.497,232.077 170.183 C 232.476 170.936,240.698 185.218,242.795 188.800 C 242.988 189.130,244.098 191.110,245.262 193.200 C 246.426 195.290,247.524 197.105,247.703 197.232 C 248.442 197.760,248.518 200.407,247.817 201.181 C 247.437 201.601,246.828 202.487,246.463 203.150 C 245.727 204.489,242.172 210.485,239.200 215.400 C 238.136 217.160,236.247 220.310,235.003 222.400 C 233.759 224.490,231.590 228.090,230.184 230.400 C 228.777 232.710,227.166 235.410,226.603 236.400 C 226.039 237.390,225.226 238.740,224.795 239.400 C 224.364 240.060,223.846 240.972,223.644 241.426 C 222.937 243.014,219.545 247.971,219.154 247.989 C 218.690 248.010,214.978 242.042,206.600 227.807 C 206.160 227.059,205.026 225.132,204.080 223.524 C 203.134 221.916,202.012 220.060,201.586 219.400 C 201.160 218.740,200.633 217.840,200.415 217.400 C 200.197 216.960,199.390 215.610,198.623 214.400 C 197.856 213.190,196.945 211.660,196.600 211.000 C 196.254 210.340,195.535 209.080,195.001 208.200 C 194.467 207.320,193.658 205.970,193.204 205.200 C 192.749 204.430,192.068 203.321,191.689 202.735 C 190.906 201.525,182.923 187.661,180.800 183.825 C 180.030 182.433,179.197 181.049,178.949 180.748 C 178.701 180.446,178.374 179.795,178.222 179.300 C 178.070 178.805,177.800 178.400,177.622 178.400 C 177.443 178.400,177.057 177.815,176.764 177.100 C 176.471 176.385,175.533 174.630,174.680 173.200 C 173.826 171.770,172.973 170.330,172.784 170.000 C 163.832 154.369,162.883 152.582,163.276 152.108 C 164.085 151.133,183.600 151.432,183.600 152.420 C 183.600 152.603,184.336 153.979,185.236 155.477 C 186.136 156.975,187.024 158.470,187.209 158.800 C 187.517 159.349,201.801 184.303,203.206 186.746 C 203.540 187.326,204.620 189.206,205.606 190.924 C 206.593 192.642,207.799 194.712,208.286 195.524 C 208.773 196.336,209.672 197.900,210.283 199.000 C 214.637 206.829,217.669 211.996,218.440 212.903 L 219.203 213.800 220.221 212.600 C 220.780 211.940,221.506 210.860,221.833 210.200 C 222.160 209.540,222.860 208.280,223.388 207.400 C 226.772 201.760,228.021 199.107,227.557 198.548 C 227.323 198.267,226.817 197.443,226.431 196.718 C 224.204 192.535,222.585 189.736,222.124 189.271 C 221.836 188.981,221.600 188.573,221.600 188.365 C 221.600 188.027,220.005 185.139,218.400 182.569 C 218.070 182.041,214.488 175.802,210.439 168.705 C 206.391 161.607,202.650 155.054,202.126 154.142 C 201.324 152.747,201.259 152.398,201.715 151.942 C 202.479 151.178,274.487 151.337,275.115 152.104 M144.910 152.301 C 145.444 152.891,154.456 168.347,156.863 172.800 C 157.279 173.570,158.154 175.100,158.807 176.200 C 159.459 177.300,160.179 178.560,160.406 179.000 C 160.633 179.440,161.253 180.520,161.784 181.400 C 162.314 182.280,163.248 183.900,163.859 185.000 C 164.471 186.100,165.197 187.360,165.475 187.800 C 165.752 188.240,166.274 189.230,166.634 190.000 C 166.995 190.770,167.410 191.490,167.558 191.600 C 167.705 191.710,169.130 194.140,170.726 197.000 C 172.321 199.860,173.793 202.470,173.997 202.800 C 174.201 203.130,175.035 204.570,175.851 206.000 C 179.530 212.449,179.543 212.456,181.392 208.825 C 182.614 206.423,184.128 204.981,184.686 205.687 C 185.121 206.237,188.926 212.777,190.918 216.400 C 191.584 217.610,192.447 219.013,192.836 219.519 C 194.256 221.360,194.134 223.326,192.435 226.000 C 192.225 226.330,191.100 228.310,189.934 230.400 C 188.768 232.490,187.586 234.438,187.307 234.729 C 187.028 235.019,186.800 235.421,186.800 235.622 C 186.800 235.822,186.125 237.122,185.300 238.511 C 182.729 242.840,182.430 243.367,181.842 244.600 C 179.571 249.362,180.370 250.372,164.917 223.200 C 164.604 222.650,163.926 221.480,163.410 220.600 C 162.893 219.720,161.897 217.920,161.195 216.600 C 160.494 215.280,159.713 213.951,159.460 213.647 C 159.207 213.342,158.640 212.395,158.200 211.541 C 157.468 210.122,153.679 203.422,152.804 202.000 C 152.312 201.199,142.364 183.878,141.600 182.490 C 140.776 180.994,137.649 175.536,137.194 174.800 C 135.798 172.544,133.469 168.538,133.146 167.839 C 132.933 167.377,132.363 166.341,131.879 165.536 C 130.450 163.156,128.557 159.845,128.257 159.200 C 128.103 158.870,127.187 157.251,126.221 155.603 C 124.941 153.420,124.577 152.469,124.881 152.103 C 125.617 151.215,144.093 151.398,144.910 152.301 " stroke="none" fill="#686c6c" fill-rule="evenodd"></path><path id="path4" d="M125.300 151.865 C 124.448 152.209,126.335 155.964,132.804 166.800 C 133.001 167.130,134.189 169.200,135.444 171.400 C 136.700 173.600,138.143 176.120,138.651 177.000 C 139.160 177.880,139.977 179.320,140.468 180.200 C 140.958 181.080,141.674 182.340,142.058 183.000 C 142.443 183.660,143.042 184.740,143.390 185.400 C 143.737 186.060,144.422 187.250,144.911 188.045 C 145.675 189.288,156.220 207.636,158.633 211.921 C 159.091 212.734,159.851 214.030,160.321 214.800 C 160.792 215.570,161.453 216.740,161.791 217.400 C 162.129 218.060,162.845 219.320,163.382 220.200 C 163.919 221.080,164.550 222.160,164.783 222.600 C 165.016 223.040,165.700 224.233,166.303 225.251 C 167.377 227.064,170.812 233.107,172.000 235.275 C 174.133 239.167,178.882 247.200,179.050 247.200 C 179.842 247.200,180.921 246.114,181.455 244.780 C 181.802 243.911,182.228 243.200,182.400 243.200 C 182.572 243.200,183.006 242.525,183.364 241.700 C 183.723 240.875,184.402 239.570,184.875 238.800 C 185.348 238.030,186.109 236.739,186.567 235.932 C 187.025 235.124,188.822 231.991,190.559 228.970 C 194.056 222.889,194.256 221.989,192.626 219.637 C 192.062 218.823,191.600 217.978,191.600 217.758 C 191.600 217.539,191.376 217.136,191.103 216.863 C 190.829 216.589,189.974 215.227,189.203 213.835 C 188.431 212.443,187.006 209.901,186.035 208.186 L 184.271 205.067 183.313 206.234 C 182.787 206.875,182.012 208.056,181.591 208.858 C 180.760 210.443,179.747 211.600,179.192 211.600 C 178.998 211.600,176.300 207.145,173.195 201.700 C 170.090 196.255,167.388 191.530,167.189 191.200 C 166.990 190.870,166.237 189.549,165.514 188.264 C 164.791 186.980,163.810 185.270,163.333 184.464 C 162.857 183.659,162.027 182.190,161.491 181.200 C 160.954 180.210,160.134 178.770,159.669 178.000 C 159.204 177.230,158.542 176.060,158.198 175.400 C 157.853 174.740,157.173 173.541,156.686 172.736 C 156.199 171.930,155.209 170.220,154.486 168.936 C 153.763 167.651,153.012 166.330,152.816 166.000 C 152.620 165.670,151.064 162.970,149.358 160.000 C 147.652 157.030,145.815 153.925,145.275 153.100 L 144.294 151.600 135.047 151.632 C 129.961 151.649,125.575 151.754,125.300 151.865 M163.352 152.182 C 163.227 152.508,165.212 156.385,167.864 160.993 C 170.469 165.519,172.870 169.717,173.200 170.321 C 174.397 172.512,177.821 178.517,178.686 179.941 C 179.173 180.744,179.851 181.940,180.192 182.600 C 180.829 183.832,181.148 184.379,182.647 186.800 C 183.123 187.570,184.013 189.100,184.624 190.200 C 186.233 193.098,189.742 199.177,191.800 202.634 C 195.476 208.808,197.547 212.263,199.214 215.000 C 200.286 216.760,201.438 218.740,201.773 219.400 C 202.282 220.402,205.822 226.298,207.177 228.400 C 207.528 228.944,208.711 230.931,210.988 234.800 C 216.659 244.436,218.793 247.668,219.363 247.483 C 219.822 247.334,221.272 245.105,225.012 238.800 C 226.251 236.710,228.145 233.560,229.221 231.800 C 230.297 230.040,231.374 228.154,231.614 227.608 C 231.854 227.063,232.189 226.523,232.359 226.408 C 232.530 226.294,233.373 224.977,234.234 223.482 C 237.032 218.624,237.339 218.106,242.380 209.702 C 245.119 205.136,247.480 201.310,247.626 201.200 C 248.753 200.353,248.422 198.788,246.400 195.400 C 245.744 194.300,245.016 193.040,244.783 192.600 C 244.550 192.160,243.963 191.139,243.479 190.330 C 237.213 179.856,231.560 169.352,231.900 168.814 C 232.463 167.920,247.229 167.695,248.466 168.562 C 249.142 169.035,254.124 177.257,256.711 182.168 L 257.327 183.336 258.271 182.168 C 258.790 181.526,261.115 177.670,263.436 173.600 C 265.758 169.530,267.819 165.930,268.016 165.600 C 268.213 165.270,269.325 163.331,270.487 161.292 C 271.649 159.252,273.001 156.912,273.491 156.092 C 274.806 153.888,275.257 152.726,275.029 152.131 C 274.862 151.695,268.316 151.600,238.462 151.600 C 198.329 151.600,200.374 151.463,202.112 154.042 C 202.615 154.789,203.884 156.930,204.931 158.800 C 205.979 160.670,207.000 162.470,207.200 162.800 C 207.401 163.130,209.868 167.419,212.682 172.332 C 215.497 177.245,218.294 182.105,218.897 183.132 C 219.500 184.159,220.179 185.360,220.406 185.800 C 220.633 186.240,221.256 187.320,221.790 188.200 C 222.324 189.080,222.987 190.250,223.264 190.800 C 223.540 191.350,224.324 192.700,225.006 193.800 C 225.688 194.900,226.637 196.614,227.115 197.609 L 227.983 199.418 227.072 201.209 C 226.571 202.194,225.630 203.900,224.982 205.000 C 224.334 206.100,223.533 207.492,223.202 208.093 C 220.123 213.686,219.368 214.541,218.553 213.361 C 218.264 212.942,217.882 212.420,217.704 212.200 C 217.526 211.980,216.311 209.910,215.003 207.600 C 213.695 205.290,212.484 203.340,212.312 203.267 C 212.140 203.193,212.000 202.950,212.000 202.727 C 212.000 202.369,209.067 197.099,206.514 192.868 C 206.027 192.061,205.345 190.860,204.998 190.200 C 204.651 189.540,203.931 188.280,203.398 187.400 C 202.865 186.520,202.168 185.260,201.849 184.600 C 201.531 183.940,201.120 183.250,200.935 183.067 C 200.751 182.884,199.880 181.414,199.000 179.800 C 197.364 176.800,193.467 169.879,192.806 168.800 C 192.414 168.159,186.425 157.785,184.865 155.044 C 182.679 151.204,184.022 151.600,173.178 151.600 C 165.143 151.600,163.538 151.695,163.352 152.182 M145.085 153.900 C 146.610 156.277,150.353 162.740,151.347 164.716 C 151.758 165.532,152.242 166.294,152.422 166.408 C 152.602 166.523,152.945 167.063,153.184 167.608 C 153.423 168.154,154.057 169.320,154.592 170.200 C 155.128 171.080,155.936 172.520,156.389 173.400 C 156.841 174.280,157.647 175.720,158.178 176.600 C 158.710 177.480,159.434 178.740,159.787 179.400 C 160.139 180.060,160.871 181.320,161.411 182.200 C 161.952 183.080,162.678 184.340,163.025 185.000 C 163.371 185.660,164.089 186.920,164.620 187.800 C 165.150 188.680,165.803 189.850,166.069 190.400 C 166.336 190.950,166.771 191.670,167.036 192.000 C 167.458 192.527,168.185 193.849,171.333 199.812 C 171.736 200.575,172.217 201.200,172.401 201.200 C 172.586 201.200,172.858 201.752,173.006 202.427 C 173.154 203.102,173.517 203.747,173.813 203.860 C 174.109 203.974,174.469 204.604,174.613 205.260 C 174.757 205.917,175.122 206.549,175.422 206.664 C 175.723 206.779,176.088 207.262,176.233 207.737 C 176.772 209.506,178.602 211.971,179.387 211.985 C 180.224 212.001,182.000 210.220,182.000 209.366 C 182.000 209.086,182.232 208.619,182.516 208.329 C 182.800 208.038,183.330 207.369,183.694 206.842 L 184.356 205.885 184.617 206.926 C 184.761 207.499,185.141 208.185,185.462 208.452 C 185.783 208.718,186.305 209.491,186.620 210.168 C 187.578 212.223,190.173 216.733,190.703 217.263 C 190.976 217.536,191.200 217.959,191.200 218.202 C 191.200 218.446,191.664 219.265,192.230 220.022 C 193.378 221.557,193.395 224.235,192.260 224.870 C 191.931 225.054,191.545 225.742,191.400 226.398 C 191.256 227.054,190.970 227.695,190.764 227.823 C 190.557 227.950,190.026 228.717,189.583 229.527 C 189.140 230.337,188.423 231.540,187.991 232.200 C 187.558 232.860,186.836 234.120,186.385 235.000 C 185.935 235.880,185.131 237.320,184.599 238.200 C 184.068 239.080,183.346 240.340,182.995 241.000 C 180.202 246.256,179.150 247.334,178.578 245.531 C 178.426 245.053,178.142 244.468,177.945 244.231 C 177.118 243.232,175.661 240.821,175.414 240.044 C 175.267 239.582,174.934 238.979,174.674 238.702 C 174.413 238.426,173.876 237.570,173.480 236.800 C 172.084 234.086,171.474 232.998,171.238 232.800 C 171.107 232.690,170.681 231.970,170.292 231.200 C 169.902 230.430,169.149 229.080,168.619 228.200 C 168.089 227.320,167.366 226.060,167.013 225.400 C 166.661 224.740,165.935 223.480,165.402 222.600 C 164.869 221.720,164.149 220.460,163.804 219.800 C 163.458 219.140,162.757 217.880,162.246 217.000 C 159.876 212.914,159.416 212.109,158.705 210.800 C 158.286 210.030,157.516 208.680,156.994 207.800 C 156.471 206.920,155.747 205.623,155.384 204.918 C 155.022 204.214,154.473 203.426,154.163 203.169 C 153.853 202.912,153.600 202.375,153.600 201.975 C 153.600 201.575,153.430 201.142,153.223 201.014 C 152.853 200.786,150.133 196.175,148.653 193.267 C 148.242 192.460,147.792 191.710,147.653 191.600 C 147.514 191.490,146.879 190.410,146.242 189.200 C 145.605 187.990,144.870 186.730,144.608 186.400 C 144.346 186.070,143.900 185.215,143.617 184.500 C 143.334 183.785,142.972 183.200,142.812 183.200 C 142.652 183.200,142.228 182.525,141.869 181.700 C 141.510 180.875,140.762 179.480,140.208 178.600 C 139.653 177.720,138.923 176.460,138.586 175.800 C 138.248 175.140,137.535 173.880,137.002 173.000 C 136.469 172.120,135.749 170.860,135.402 170.200 C 135.055 169.540,134.334 168.280,133.799 167.400 C 132.355 165.024,131.304 163.150,130.639 161.768 C 130.313 161.091,129.766 160.304,129.423 160.019 C 129.080 159.735,128.800 159.188,128.800 158.805 C 128.800 158.422,128.469 157.679,128.064 157.154 C 126.732 155.429,125.196 152.537,125.467 152.266 C 125.614 152.120,129.813 152.000,134.799 152.000 L 143.865 152.000 145.085 153.900 M183.184 153.100 C 183.874 154.744,185.114 156.898,185.523 157.165 C 185.722 157.294,186.104 158.075,186.373 158.900 C 186.642 159.725,187.013 160.400,187.198 160.400 C 187.382 160.400,188.101 161.525,188.794 162.900 C 189.487 164.275,190.576 166.210,191.212 167.200 C 191.849 168.190,192.654 169.624,193.001 170.386 C 193.347 171.148,193.759 171.868,193.916 171.986 C 194.072 172.104,194.519 172.830,194.908 173.600 C 195.298 174.370,196.045 175.720,196.567 176.600 C 197.090 177.480,197.910 178.960,198.389 179.889 C 198.868 180.817,199.658 182.167,200.145 182.889 C 200.631 183.610,201.269 184.785,201.563 185.500 C 201.857 186.215,202.238 186.800,202.409 186.800 C 202.581 186.800,202.926 187.295,203.177 187.900 C 203.427 188.505,204.067 189.720,204.599 190.600 C 205.559 192.186,206.307 193.511,207.985 196.600 C 208.463 197.480,209.299 198.920,209.841 199.800 C 210.384 200.680,211.087 201.969,211.404 202.663 C 211.721 203.358,212.120 203.988,212.290 204.063 C 212.461 204.139,213.211 205.420,213.958 206.912 C 214.705 208.404,215.472 209.721,215.664 209.840 C 215.855 209.958,216.264 210.627,216.572 211.327 C 216.880 212.027,217.581 213.140,218.131 213.800 L 219.129 215.000 220.132 214.060 C 220.684 213.544,221.359 212.554,221.633 211.860 C 221.906 211.167,222.448 210.240,222.838 209.800 C 223.228 209.360,223.748 208.550,223.994 208.000 C 224.240 207.450,224.875 206.280,225.404 205.400 C 225.934 204.520,226.626 203.237,226.943 202.549 C 227.259 201.861,227.717 201.175,227.959 201.025 C 228.513 200.683,228.540 198.134,227.994 197.796 C 227.771 197.658,227.322 196.973,226.996 196.273 C 226.671 195.573,225.948 194.280,225.389 193.400 C 224.830 192.520,224.096 191.260,223.759 190.600 C 223.421 189.940,222.715 188.680,222.189 187.800 C 221.663 186.920,220.946 185.660,220.595 185.000 C 220.244 184.340,219.647 183.260,219.267 182.600 C 218.887 181.940,217.807 180.050,216.867 178.400 C 215.926 176.750,214.983 175.130,214.770 174.800 C 214.558 174.470,214.133 173.660,213.827 173.000 C 213.521 172.340,213.120 171.652,212.935 171.470 C 212.751 171.289,211.929 169.939,211.109 168.470 C 209.583 165.737,208.700 164.215,207.009 161.400 C 206.480 160.520,205.747 159.125,205.380 158.300 C 205.013 157.475,204.570 156.800,204.396 156.800 C 204.221 156.800,203.878 156.227,203.634 155.526 C 203.390 154.825,202.905 153.937,202.556 153.551 C 202.207 153.166,202.040 152.659,202.184 152.425 C 202.500 151.915,274.237 151.813,274.552 152.322 C 274.662 152.500,274.498 153.085,274.188 153.622 C 273.878 154.160,273.422 155.095,273.173 155.700 C 272.925 156.305,272.581 156.800,272.409 156.800 C 272.238 156.800,271.865 157.385,271.581 158.100 C 271.298 158.815,270.871 159.646,270.633 159.948 C 270.061 160.672,267.352 165.461,266.603 167.073 C 266.278 167.773,265.855 168.442,265.664 168.560 C 265.472 168.679,264.705 169.996,263.958 171.488 C 263.211 172.980,262.467 174.259,262.305 174.332 C 262.142 174.404,261.641 175.214,261.191 176.132 C 259.202 180.185,257.234 183.065,257.213 181.954 C 257.206 181.599,256.864 180.879,256.454 180.354 C 256.044 179.829,255.136 178.326,254.438 177.014 C 253.739 175.701,253.040 174.531,252.884 174.414 C 252.728 174.296,251.957 172.940,251.172 171.400 C 249.229 167.591,249.296 167.613,239.720 167.606 C 232.576 167.601,231.596 167.678,231.265 168.270 C 230.849 169.012,231.394 171.136,232.170 171.800 C 232.427 172.020,232.876 172.785,233.167 173.500 C 233.459 174.215,233.841 174.800,234.017 174.800 C 234.193 174.800,234.455 175.340,234.600 176.000 C 234.745 176.660,234.993 177.200,235.152 177.200 C 235.311 177.200,235.836 177.965,236.318 178.900 C 237.267 180.737,237.773 181.602,238.884 183.284 C 239.278 183.880,239.600 184.586,239.600 184.852 C 239.600 185.119,239.887 185.654,240.237 186.041 C 240.841 186.708,241.547 187.876,242.995 190.600 C 243.346 191.260,244.069 192.520,244.602 193.400 C 245.135 194.280,245.866 195.630,246.226 196.400 C 246.585 197.170,247.139 198.092,247.456 198.449 C 248.040 199.108,246.984 201.798,245.442 203.581 C 244.834 204.283,243.850 206.073,243.177 207.700 C 242.927 208.305,242.593 208.800,242.435 208.800 C 242.277 208.800,241.836 209.385,241.454 210.100 C 241.072 210.815,240.320 212.120,239.783 213.000 C 239.245 213.880,238.537 215.173,238.209 215.873 C 237.881 216.573,237.427 217.260,237.200 217.400 C 236.973 217.540,236.517 218.227,236.187 218.927 C 235.424 220.542,234.273 222.540,233.956 222.800 C 233.822 222.910,233.404 223.540,233.028 224.200 C 232.314 225.455,231.650 226.573,229.000 230.986 C 228.120 232.451,227.109 234.177,226.753 234.820 C 226.397 235.464,225.904 236.234,225.657 236.531 C 225.410 236.829,224.643 238.136,223.952 239.436 C 223.261 240.736,222.579 241.890,222.438 242.000 C 222.296 242.110,221.561 243.235,220.805 244.500 C 219.243 247.114,219.135 247.173,218.400 245.800 C 218.106 245.250,217.715 244.800,217.532 244.800 C 217.350 244.800,217.197 244.575,217.193 244.300 C 217.186 243.856,215.410 240.915,214.456 239.769 C 214.259 239.532,213.965 238.902,213.802 238.369 C 213.639 237.836,213.228 237.084,212.888 236.697 C 212.167 235.876,211.461 234.704,210.617 232.927 C 210.284 232.227,209.827 231.540,209.600 231.400 C 209.373 231.260,208.914 230.573,208.580 229.873 C 208.245 229.173,207.535 227.880,207.002 227.000 C 206.468 226.120,205.729 224.860,205.360 224.200 C 204.991 223.540,204.578 222.910,204.444 222.800 C 204.310 222.690,203.883 221.970,203.495 221.200 C 203.108 220.430,202.442 219.260,202.015 218.600 C 201.184 217.312,198.188 212.265,197.198 210.484 C 196.867 209.888,196.051 208.590,195.384 207.600 C 194.717 206.610,193.937 205.228,193.649 204.529 C 193.362 203.830,192.873 203.160,192.563 203.041 C 192.254 202.922,192.000 202.470,192.000 202.036 C 192.000 201.602,191.802 201.125,191.559 200.975 C 191.317 200.825,190.860 200.139,190.544 199.451 C 190.228 198.763,189.444 197.390,188.800 196.400 C 188.156 195.410,187.346 193.976,186.999 193.214 C 186.653 192.452,186.237 191.732,186.076 191.614 C 185.915 191.496,185.554 190.950,185.273 190.400 C 184.991 189.850,184.326 188.680,183.794 187.800 C 182.432 185.547,181.369 183.658,180.418 181.800 C 179.968 180.920,179.143 179.480,178.586 178.600 C 178.028 177.720,177.301 176.460,176.970 175.800 C 176.639 175.140,175.933 173.880,175.403 173.000 C 174.873 172.120,174.215 170.950,173.942 170.400 C 173.669 169.850,173.201 169.105,172.902 168.745 C 172.408 168.151,171.238 166.061,168.735 161.300 C 168.243 160.365,167.696 159.600,167.520 159.600 C 167.344 159.600,167.200 159.397,167.200 159.149 C 167.200 158.900,166.615 157.715,165.900 156.514 C 162.959 151.575,162.255 152.000,173.384 152.000 L 182.722 152.000 183.184 153.100 " stroke="none" fill="#8c8c8c" fill-rule="evenodd"></path></g></svg>